            <svg
              xmlns="http://www.w3.org/2000/svg"
              version="1.1"
              x="0px"
              y="0px"
              viewBox="0 0 110 110"
            >
              <g>
                <path d="M77,50H33c-2.761,0-5,2.239-5,5c0,2.762,2.239,5,5,5h44c2.762,0,5-2.238,5-5C82,52.239,79.762,50,77,50z" />
                <path d="M33,42h44c2.762,0,5-2.239,5-5s-2.238-5-5-5H33c-2.761,0-5,2.239-5,5S30.239,42,33,42z" />
                <path d="M77,68H33c-2.761,0-5,2.238-5,5s2.239,5,5,5h44c2.762,0,5-2.238,5-5S79.762,68,77,68z" />
              </g>
              <g>
                <path d="M55,13c23.159,0,42,18.841,42,42c0,23.159-18.841,42-42,42c-23.159,0-42-18.841-42-42C13,31.841,31.841,13,55,13 M55,5   C27.386,5,5,27.386,5,55s22.386,50,50,50s50-22.386,50-50S82.614,5,55,5L55,5z" />
              </g>
            </svg>