<svg xmlns="http://www.w3.org/2000/svg" xmlns:xlink="http://www.w3.org/1999/xlink" version="1.1" x="0px" y="0px" viewBox="0 0 100 100" enable-background="new 0 0 100 100" xml:space="preserve"><g><path d="M57.53,33.583H36.944c-1.104,0-2-0.896-2-2s0.896-2,2-2H57.53c1.104,0,2,0.896,2,2   S58.635,33.583,57.53,33.583z"></path></g><g><path d="M61.987,43.583h-29.5c-1.104,0-2-0.896-2-2s0.896-2,2-2h29.5c1.104,0,2,0.896,2,2   S63.092,43.583,61.987,43.583z"></path></g><g><path d="M61.987,53.417h-29.5c-1.104,0-2-0.896-2-2s0.896-2,2-2h29.5c1.104,0,2,0.896,2,2   S63.092,53.417,61.987,53.417z"></path></g><g><path d="M57.53,63.333H36.944c-1.104,0-2-0.896-2-2s0.896-2,2-2H57.53c1.104,0,2,0.896,2,2   S58.635,63.333,57.53,63.333z"></path></g></svg>