<?xml version="1.0" encoding="UTF-8" standalone="no"?>
<!DOCTYPE svg PUBLIC "-//W3C//DTD SVG 1.1//EN" "http://www.w3.org/Graphics/SVG/1.1/DTD/svg11.dtd">
<svg width="100%" height="100%" viewBox="0 0 220 146" version="1.1" xmlns="http://www.w3.org/2000/svg" xmlns:xlink="http://www.w3.org/1999/xlink" xml:space="preserve" xmlns:serif="http://www.serif.com/" style="fill-rule:evenodd;clip-rule:evenodd;stroke-linejoin:round;stroke-miterlimit:1.41421;">
    <g transform="matrix(1,0,0,1,-0.283575,0)">
        <g transform="matrix(1,0,0,1,-40.5,-39.3)">
            <g transform="matrix(-1,0,0,1.31392,300.9,-12.3371)">
                <path d="M189.6,62.1L51.9,62.1C45.6,62.1 40.5,57 40.5,50.7C40.5,44.4 45.6,39.3 51.9,39.3L189.6,39.3C195.9,39.3 201,44.4 201,50.7C201,57 195.9,62.1 189.6,62.1Z" style="fill-rule:nonzero;"/>
            </g>
        </g>
        <g transform="matrix(1,0,0,1,-40.5,-39.3)">
            <g transform="matrix(-1,0,0,1.31768,301.184,-85.1796)">
                <path d="M249,161.1L51.9,161.1C45.6,161.1 40.5,156 40.5,149.7C40.5,143.4 45.6,138.3 51.9,138.3L249,138.3C255.3,138.3 260.4,143.4 260.4,149.7C260.4,156 255.3,161.1 249,161.1Z" style="fill-rule:nonzero;"/>
            </g>
        </g>
        <g transform="matrix(1,0,0,1,-40.5,-39.3)">
            <g transform="matrix(-1,0,0,1.3142,301.198,-156.964)">
                <path d="M189.6,260.1L51.9,260.1C45.6,260.1 40.5,255 40.5,248.7C40.5,242.4 45.6,237.3 51.9,237.3L189.6,237.3C195.9,237.3 201,242.4 201,248.7C201,255 195.9,260.1 189.6,260.1Z" style="fill-rule:nonzero;"/>
            </g>
        </g>
    </g>
</svg>
