<svg clip-rule="evenodd" fill-rule="evenodd" stroke-linejoin="round" stroke-miterlimit="1.41421" viewBox="0 0 220 146" xmlns="http://www.w3.org/2000/svg"><g fill-rule="nonzero"><path d="m189.6 62.1h-137.7c-6.3 0-11.4-5.1-11.4-11.4s5.1-11.4 11.4-11.4h137.7c6.3 0 11.4 5.1 11.4 11.4s-5.1 11.4-11.4 11.4z" transform="matrix(-1 0 0 1.31392 260.116425 -51.6371)"/><path d="m249 161.1h-197.1c-6.3 0-11.4-5.1-11.4-11.4s5.1-11.4 11.4-11.4h197.1c6.3 0 11.4 5.1 11.4 11.4s-5.1 11.4-11.4 11.4z" transform="matrix(-1 0 0 1.31768 260.400425 -124.4796)"/><path d="m189.6 260.1h-137.7c-6.3 0-11.4-5.1-11.4-11.4s5.1-11.4 11.4-11.4h137.7c6.3 0 11.4 5.1 11.4 11.4s-5.1 11.4-11.4 11.4z" transform="matrix(-1 0 0 1.3142 260.414425 -196.264)"/></g></svg>